<svg width="300" height="342" viewBox="0 0 300 342" fill="none" xmlns="http://www.w3.org/2000/svg">
<path d="M76.3201 36.3498L114.297 31.6577C127.807 29.9885 141.52 31.6678 154.228 36.5477L180.573 46.664C191.591 50.8949 203.461 52.4315 215.193 51.1458C245.578 47.8159 274.084 66.4164 283.274 95.5701L284.558 99.6444C290.854 119.615 287.777 141.362 276.19 158.803L266.025 174.103C253.372 193.147 250.081 216.916 257.083 238.682L261.659 252.904C273.418 289.457 244.93 326.463 206.585 324.445C200.602 324.13 194.604 324.646 188.763 325.978L149.548 334.922C143.493 336.303 137.302 337 131.092 337H122.691C98.1576 337 75.3478 324.386 62.3055 303.607L61.4042 302.171C57.0155 295.179 51.4502 288.999 44.9545 283.904C22.311 266.144 14.9901 235.068 27.3249 209.069L43.7158 174.519C51.7586 157.566 49.4905 137.519 37.8635 122.791C34.6772 118.755 32.3129 114.134 30.9044 109.188L30.0479 106.181C20.779 73.6371 42.7372 40.4991 76.3201 36.3498Z" fill="#DFD9FF" stroke="#915EFF" stroke-width="10"/>
<mask id="path-2-outside-1_34_34" maskUnits="userSpaceOnUse" x="50" y="63" width="202" height="247" fill="black">
<rect fill="white" x="50" y="63" width="202" height="247"/>
<path d="M101.5 210C101.333 206.667 101 199.667 100.5 189C100 178.333 99.5 170.25 99 164.75C98.6667 159.083 97.75 151.417 96.25 141.75C94.9167 132.083 93.1667 124.333 91 118.5C85.6667 103.167 78.1667 92.1667 68.5 85.5C81.5 77.6667 92 73.75 100 73.75C108.167 73.75 114.917 75.0833 120.25 77.75C125.583 80.4167 129.917 83.6667 133.25 87.5C136.75 91.1667 139.833 96.3333 142.5 103C145.167 109.667 147.167 115.75 148.5 121.25C149.833 126.75 150.917 133.833 151.75 142.5C152.75 151.167 153.333 158.167 153.5 163.5C153.833 168.833 154.083 175.917 154.25 184.75C154.583 193.417 154.833 199.417 155 202.75H158.5C165 187.25 170.917 169.5 176.25 149.5C181.75 129.5 184.5 113.583 184.5 101.75C184.5 95.9167 183.25 90.5 180.75 85.5C193.25 77.6667 204.333 73.75 214 73.75C232.333 73.75 241.5 83.4167 241.5 102.75C241.5 112.583 237.75 129.083 230.25 152.25C222.75 175.417 213.917 197.833 203.75 219.5C190.583 247.667 177 268 163 280.5C149.167 293 131.333 299.25 109.5 299.25C99.8333 299.25 91.0833 297.333 83.25 293.5C73.75 289 69 281.417 69 270.75C69 260.083 73.0833 249.083 81.25 237.75C84.9167 243.083 89.8333 247.25 96 250.25C102.167 253.083 108.917 254.5 116.25 254.5C123.75 254.5 130.75 252.5 137.25 248.5C143.917 244.333 148.667 238.417 151.5 230.75C142.667 232.917 134.583 234 127.25 234C111.417 234 102.833 226 101.5 210Z"/>
</mask>
<path d="M101.5 210C101.333 206.667 101 199.667 100.5 189C100 178.333 99.5 170.25 99 164.75C98.6667 159.083 97.75 151.417 96.25 141.75C94.9167 132.083 93.1667 124.333 91 118.5C85.6667 103.167 78.1667 92.1667 68.5 85.5C81.5 77.6667 92 73.75 100 73.75C108.167 73.75 114.917 75.0833 120.25 77.75C125.583 80.4167 129.917 83.6667 133.25 87.5C136.75 91.1667 139.833 96.3333 142.5 103C145.167 109.667 147.167 115.75 148.5 121.25C149.833 126.75 150.917 133.833 151.75 142.5C152.75 151.167 153.333 158.167 153.5 163.5C153.833 168.833 154.083 175.917 154.25 184.75C154.583 193.417 154.833 199.417 155 202.75H158.5C165 187.25 170.917 169.5 176.25 149.5C181.75 129.5 184.5 113.583 184.5 101.75C184.5 95.9167 183.25 90.5 180.75 85.5C193.25 77.6667 204.333 73.75 214 73.75C232.333 73.75 241.5 83.4167 241.5 102.75C241.5 112.583 237.75 129.083 230.25 152.25C222.75 175.417 213.917 197.833 203.75 219.5C190.583 247.667 177 268 163 280.5C149.167 293 131.333 299.25 109.5 299.25C99.8333 299.25 91.0833 297.333 83.25 293.5C73.75 289 69 281.417 69 270.75C69 260.083 73.0833 249.083 81.25 237.75C84.9167 243.083 89.8333 247.25 96 250.25C102.167 253.083 108.917 254.5 116.25 254.5C123.75 254.5 130.75 252.5 137.25 248.5C143.917 244.333 148.667 238.417 151.5 230.75C142.667 232.917 134.583 234 127.25 234C111.417 234 102.833 226 101.5 210Z" fill="black"/>
<path d="M101.5 210L91.5125 210.499L91.5208 210.665L91.5345 210.83L101.5 210ZM100.5 189L110.489 188.532L110.489 188.532L100.5 189ZM99 164.75L89.0173 165.337L89.0266 165.496L89.0411 165.655L99 164.75ZM96.25 141.75L86.3438 143.116L86.3553 143.2L86.3683 143.283L96.25 141.75ZM91 118.5L81.555 121.785L81.5894 121.884L81.6257 121.982L91 118.5ZM68.5 85.5L63.3389 76.9348L50.0646 84.9334L62.8227 93.7321L68.5 85.5ZM120.25 77.75L124.722 68.8057L124.722 68.8057L120.25 77.75ZM133.25 87.5L125.704 94.0618L125.856 94.2369L126.016 94.4048L133.25 87.5ZM142.5 103L151.785 99.2861L151.785 99.2861L142.5 103ZM148.5 121.25L138.781 123.606L138.782 123.606L148.5 121.25ZM151.75 142.5L141.796 143.457L141.805 143.552L141.816 143.646L151.75 142.5ZM153.5 163.5L143.505 163.812L143.51 163.968L143.519 164.124L153.5 163.5ZM154.25 184.75L144.252 184.939L144.254 185.037L144.257 185.134L154.25 184.75ZM155 202.75L145.012 203.249L145.488 212.75H155V202.75ZM158.5 202.75V212.75H165.15L167.722 206.617L158.5 202.75ZM176.25 149.5L166.608 146.848L166.598 146.886L166.588 146.923L176.25 149.5ZM180.75 85.5L175.44 77.0264L167.744 81.849L171.806 89.9721L180.75 85.5ZM203.75 219.5L194.697 215.252L194.694 215.259L194.691 215.265L203.75 219.5ZM163 280.5L156.34 273.041L156.318 273.06L156.296 273.08L163 280.5ZM83.25 293.5L87.6455 284.518L87.5884 284.49L87.5309 284.463L83.25 293.5ZM81.25 237.75L89.4904 232.085L81.4422 220.378L73.1369 231.904L81.25 237.75ZM96 250.25L91.6253 259.242L91.7246 259.291L91.825 259.337L96 250.25ZM137.25 248.5L142.491 257.017L142.521 256.998L142.55 256.98L137.25 248.5ZM151.5 230.75L160.88 234.217L167.408 216.552L149.118 221.038L151.5 230.75ZM111.488 209.501C111.322 206.186 110.989 199.202 110.489 188.532L90.511 189.468C91.0108 200.132 91.3449 207.148 91.5125 210.499L111.488 209.501ZM110.489 188.532C109.987 177.827 109.479 169.568 108.959 163.845L89.0411 165.655C89.5208 170.932 90.0128 178.84 90.511 189.468L110.489 188.532ZM108.983 164.163C108.622 158.033 107.651 150.008 106.132 140.217L86.3683 143.283C87.8489 152.825 88.7112 160.134 89.0173 165.337L108.983 164.163ZM106.156 140.384C104.773 130.353 102.896 121.807 100.374 115.018L81.6257 121.982C83.4377 126.86 85.0607 133.814 86.3438 143.116L106.156 140.384ZM100.445 115.215C94.6745 98.6247 86.1508 85.5254 74.1773 77.2679L62.8227 93.7321C70.1825 98.8079 76.6588 107.709 81.555 121.785L100.445 115.215ZM73.6611 94.0652C86.2771 86.4633 94.8224 83.75 100 83.75V63.75C89.1776 63.75 76.7229 68.87 63.3389 76.9348L73.6611 94.0652ZM100 83.75C107.158 83.75 112.249 84.9297 115.778 86.6943L124.722 68.8057C117.585 65.2369 109.176 63.75 100 63.75V83.75ZM115.778 86.6943C120.141 88.8758 123.365 91.3722 125.704 94.0618L140.796 80.9382C136.468 75.9611 131.026 71.9575 124.722 68.8057L115.778 86.6943ZM126.016 94.4048C128.35 96.8497 130.84 100.776 133.215 106.714L151.785 99.2861C148.826 91.8904 145.15 85.4836 140.484 80.5952L126.016 94.4048ZM133.215 106.714C135.75 113.05 137.585 118.672 138.781 123.606L158.219 118.894C156.748 112.828 154.584 106.283 151.785 99.2861L133.215 106.714ZM138.782 123.606C139.961 128.471 140.987 135.04 141.796 143.457L161.704 141.543C160.847 132.627 159.706 125.029 158.219 118.894L138.782 123.606ZM141.816 143.646C142.801 152.186 143.351 158.876 143.505 163.812L163.495 163.188C163.316 157.457 162.699 150.148 161.684 141.354L141.816 143.646ZM143.519 164.124C143.84 169.25 144.086 176.17 144.252 184.939L164.248 184.561C164.08 175.663 163.827 168.417 163.481 162.876L143.519 164.124ZM144.257 185.134C144.591 193.798 144.843 199.851 145.012 203.249L164.988 202.251C164.824 198.982 164.576 193.036 164.243 184.366L144.257 185.134ZM155 212.75H158.5V192.75H155V212.75ZM167.722 206.617C174.433 190.615 180.487 172.42 185.912 152.077L166.588 146.923C161.346 166.58 155.567 183.885 149.278 198.883L167.722 206.617ZM185.892 152.152C191.48 131.832 194.5 114.908 194.5 101.75H174.5C174.5 112.259 172.02 127.168 166.608 146.848L185.892 152.152ZM194.5 101.75C194.5 94.4338 192.919 87.4773 189.694 81.0279L171.806 89.9721C173.581 93.5227 174.5 97.3995 174.5 101.75H194.5ZM186.06 93.9736C197.744 86.6517 206.954 83.75 214 83.75V63.75C201.712 63.75 188.756 68.6816 175.44 77.0264L186.06 93.9736ZM214 83.75C221.486 83.75 225.298 85.6973 227.369 87.8809C229.534 90.164 231.5 94.4962 231.5 102.75H251.5C251.5 91.6705 248.883 81.5027 241.881 74.1191C234.785 66.636 224.848 63.75 214 63.75V83.75ZM231.5 102.75C231.5 110.826 228.251 125.957 220.736 149.17L239.764 155.33C247.249 132.209 251.5 114.34 251.5 102.75H231.5ZM220.736 149.17C213.363 171.945 204.683 193.971 194.697 215.252L212.803 223.748C223.151 201.695 232.137 178.888 239.764 155.33L220.736 149.17ZM194.691 215.265C181.769 242.907 168.88 261.844 156.34 273.041L169.66 287.959C185.12 274.156 199.397 252.426 212.809 223.735L194.691 215.265ZM156.296 273.08C144.609 283.641 129.306 289.25 109.5 289.25V309.25C133.361 309.25 153.724 302.359 169.704 287.92L156.296 273.08ZM109.5 289.25C101.19 289.25 93.9677 287.612 87.6455 284.518L78.8545 302.482C88.1989 307.055 98.4769 309.25 109.5 309.25V289.25ZM87.5309 284.463C84.1994 282.885 82.2327 281.038 81.0372 279.129C79.8361 277.212 79 274.57 79 270.75H59C59 277.596 60.5389 284.08 64.0878 289.746C67.6423 295.421 72.8006 299.615 78.9691 302.537L87.5309 284.463ZM79 270.75C79 262.747 82.0454 253.751 89.3631 243.596L73.1369 231.904C64.1213 244.415 59 257.42 59 270.75H79ZM73.0096 243.415C77.7143 250.259 84.0001 255.533 91.6253 259.242L100.375 241.258C95.6665 238.967 92.119 235.908 89.4904 232.085L73.0096 243.415ZM91.825 259.337C99.4043 262.819 107.593 264.5 116.25 264.5V244.5C110.24 244.5 104.929 243.348 100.175 241.163L91.825 259.337ZM116.25 264.5C125.635 264.5 134.444 261.968 142.491 257.017L132.009 239.983C127.056 243.032 121.865 244.5 116.25 244.5V264.5ZM142.55 256.98C151.173 251.591 157.312 243.871 160.88 234.217L142.12 227.283C140.021 232.962 136.661 237.076 131.95 240.02L142.55 256.98ZM149.118 221.038C140.886 223.057 133.616 224 127.25 224V244C135.551 244 144.447 242.776 153.882 240.462L149.118 221.038ZM127.25 224C120.964 224 117.629 222.431 115.756 220.685C113.861 218.919 112.002 215.613 111.465 209.17L91.5345 210.83C92.3309 220.387 95.4304 229.081 102.119 235.315C108.83 241.569 117.703 244 127.25 244V224Z" fill="#915EFF" mask="url(#path-2-outside-1_34_34)"/>
</svg>
